# xmcd
#
# Track frame offsets: 
#        150
#        16625
#        30412
#        46602
#        63825
#        85032
#        99822
#        117415
#        138427
#        157092
#        174692
#        203252
#        224125
#        238017
#        283972
#
# Disc length: 4042 seconds
#
# Revision: 4
# Processed by: cddbd v1.5.2PL0 Copyright (c) Steve Scherf et al.
# Submitted via: ExactAudioCopy v0.99pb5
#
DISCID=c30fc80f
DTITLE=Twisted Sister - Big Hits and Nasty Cuts {Japan AMCY-400}
DYEAR=1992
DGENRE=Hard Rock
TTITLE0=We're Not Gonna Take It
TTITLE1=I Wanna Rock
TTITLE2=I Am (I'm Me)
TTITLE3=The Price
TTITLE4=You Can't Stop Rock 'N' Roll
TTITLE5=The Kids Are Back
TTITLE6=Shoot 'Em Down
TTITLE7=Under The Blade
TTITLE8=I'll Never Grow Up, Now!
TTITLE9=Be Chrool To Your Scuel
TTITLE10=What You Don't Know Sure Can Hurt You (Live)
TTITLE11=Destroyer (Live)
TTITLE12=Tear It Loose (Live)
TTITLE13=It's Only Rock 'N' Roll (Live)
TTITLE14=Let The Good Times Roll - Feel So Fine (Live)
EXTD=YEAR: 1992
EXTT0=
EXTT1=
EXTT2=
EXTT3=
EXTT4=
EXTT5=
EXTT6=
EXTT7=
EXTT8=
EXTT9=
EXTT10=
EXTT11=
EXTT12=
EXTT13=
EXTT14=
PLAYORDER=
